<svg xmlns="http://www.w3.org/2000/svg" viewBox="0 0 200 60" fill="none">
  <rect x="4" y="4" width="52" height="52" rx="14" fill="#00A0DF"/>
  <path d="M20 38V22H24.8C26.9 22 28.5 22.6 29.7 23.7C30.9 24.8 31.5 26.3 31.5 28.2C31.5 30.1 30.9 31.6 29.7 32.7C28.5 33.8 26.9 34.4 24.8 34.4H24V38H20ZM24 31H24.4C25.5 31 26.3 30.8 26.8 30.3C27.3 29.8 27.6 29.1 27.6 28.2C27.6 27.3 27.3 26.6 26.8 26.1C26.3 25.6 25.5 25.4 24.4 25.4H24V31Z" fill="white"/>
  <path d="M36 38L42 28.2L36.4 22H41.2L44.4 26L47.6 22H52.4L46.8 28.2L53 38H48.2L44.4 33.2L40.8 38H36Z" fill="white"/>
  <path d="M72 35.2C70.6 36.6 68.8 37.3 66.6 37.3C64.4 37.3 62.6 36.6 61.2 35.2C59.8 33.8 59.1 31.9 59.1 29.8V22H63.1V29.6C63.1 30.8 63.4 31.7 64 32.4C64.6 33.1 65.5 33.4 66.6 33.4C67.7 33.4 68.6 33.1 69.2 32.4C69.8 31.7 70.1 30.8 70.1 29.6V22H74.1V29.8C74.1 31.9 73.4 33.8 72 35.2Z" fill="#1A1A2E"/>
  <path d="M78 37V22H82V33.4H89.6V37H78Z" fill="#1A1A2E"/>
  <path d="M104.4 35.2C103 36.6 101.2 37.3 99 37.3C96.8 37.3 95 36.6 93.6 35.2C92.2 33.8 91.5 31.9 91.5 29.8V22H95.5V29.6C95.5 30.8 95.8 31.7 96.4 32.4C97 33.1 97.9 33.4 99 33.4C100.1 33.4 101 33.1 101.6 32.4C102.2 31.7 102.5 30.8 102.5 29.6V22H106.5V29.8C106.5 31.9 105.8 33.8 104.4 35.2Z" fill="#1A1A2E"/>
  <path d="M115.7 37.3C113.6 37.3 111.9 36.6 110.5 35.2C109.1 33.8 108.4 31.9 108.4 29.8C108.4 27.7 109.1 25.8 110.5 24.4C111.9 23 113.6 22.3 115.7 22.3C117.2 22.3 118.5 22.7 119.6 23.5C120.7 24.3 121.5 25.4 121.9 26.7H117.5C117.1 25.9 116.4 25.5 115.5 25.5C114.6 25.5 113.8 25.9 113.2 26.6C112.6 27.3 112.3 28.4 112.3 29.8C112.3 31.2 112.6 32.3 113.2 33C113.8 33.7 114.6 34.1 115.5 34.1C116.4 34.1 117.1 33.7 117.5 32.9H121.9C121.5 34.2 120.7 35.3 119.6 36.1C118.5 36.9 117.2 37.3 115.7 37.3Z" fill="#1A1A2E"/>
  <path d="M128 37H124V22H128V37Z" fill="#1A1A2E"/>
  <path d="M143.5 35.2C142.1 36.6 140.3 37.3 138.1 37.3C135.9 37.3 134.1 36.6 132.7 35.2C131.3 33.8 130.6 31.9 130.6 29.8C130.6 27.7 131.3 25.8 132.7 24.4C134.1 23 135.9 22.3 138.1 22.3C140.3 22.3 142.1 23 143.5 24.4C144.9 25.8 145.6 27.7 145.6 29.8C145.6 31.9 144.9 33.8 143.5 35.2ZM136 32.4C136.6 33.1 137.5 33.4 138.5 33.4C139.5 33.4 140.3 32.8 140.8 32.1C141.3 31.4 141.6 30.6 141.6 29.8C141.6 29 141.3 28.2 140.8 27.5C140.3 26.8 139.5 26.2 138.5 26.2C137.5 26.2 136.6 26.5 136 27.2C135.4 27.9 135.1 28.8 135.1 29.8C135.1 30.8 135.4 31.7 136 32.4Z" fill="#1A1A2E"/>
  <path d="M149 22H153V37H149V22Z" fill="#1A1A2E"/>
</svg>