<svg xmlns="http://www.w3.org/2000/svg" viewBox="0 0 780 500" fill="none">
  <rect width="780" height="500" rx="24" fill="#1A1F71"/>
  <path d="M345.3 332.1L369.3 168.1H414.2L390.2 332.1H345.3Z" fill="white"/>
  <path d="M518.1 172.6C509.5 169.2 495.7 165.4 478.4 165.4C434.2 165.4 403.2 188.2 402.9 220.7C402.4 244.8 424.8 257.6 441.9 265.2C459.5 273 465.6 278.6 465.5 286.4C465.3 298.4 451.2 304 438.1 304C419.8 304 409.9 301.1 394.7 294.4L388.6 291.4L382 328.2C392.1 332.6 412 336.5 432.8 336.8C479.7 336.8 509.9 314.4 510.5 279.6C510.8 260.5 499.4 245.8 473.5 233.7C457.5 226.4 448.2 220.9 448.3 212.6C448.4 205.2 456.6 197.5 473.9 197.5C488.5 197.3 499.1 200.7 507.4 204.1L511.4 206.1L518.1 172.6Z" fill="white"/>
  <path d="M621.1 168.1H587.1C575.9 168.1 567.5 171.4 562.6 182.9L496.4 332.1H543.2C543.2 332.1 551.1 310.8 552.9 306.1C558.3 306.1 604.1 306.2 610.9 306.2C612.3 312.2 616.5 332.1 616.5 332.1H658L621.1 168.1ZM565.3 275.8C569.1 266.2 583.6 231.2 583.6 231.2C583.3 231.7 587.4 221.5 589.7 215.4L593 229.6C593 229.6 602.6 267.3 604.7 275.8H565.3Z" fill="white"/>
  <path d="M298.1 168.1L253.7 283.8L248.6 258.3C239.5 228.8 212.3 196.5 181.5 180.3L222.2 332H269.3L345.1 168.1H298.1Z" fill="white"/>
  <path d="M213.7 168.1H140.7L140 171.7C197.3 185.7 235.6 220.4 248.6 258.3L234.5 183.1C232.2 171.8 223.9 168.5 213.7 168.1Z" fill="white"/>
</svg>